# xmcd CD database file
#
# Track frame offsets:
#	150
#	24011
#	41722
#	63867
#	86544
#	109907
#	125672
#	145209
#	164347
#	179374
#	198514
#	209136
#	220043
#
# Disc length: 3122 seconds
#
# Revision: 0
# Processed by: cddbd v1.5.2PL0 Copyright (c) Steve Scherf et al.
# Submitted via: CDex 1.70beta2
#
DISCID=bd0c300d
DTITLE=Trio Sud - Young and fine
DYEAR=2008
DGENRE=Jazz
TTITLE0=Song for my twins
TTITLE1=Sylvain shadows
TTITLE2=Darn that dream
TTITLE3=Sweetest somebody I know
TTITLE4=Message
TTITLE5=Con alma
TTITLE6=Infant eyes
TTITLE7=Avenue des diables bleus
TTITLE8=Young and fine
TTITLE9=Renaissance
TTITLE10=French brother
TTITLE11=Imperfact tune
TTITLE12=Magnificent Marcel
EXTD=YEAR: 2008
EXTT0=
EXTT1=
EXTT2=
EXTT3=
EXTT4=
EXTT5=
EXTT6=
EXTT7=
EXTT8=
EXTT9=
EXTT10=
EXTT11=
EXTT12=
PLAYORDER=
